<svg xmlns="http://www.w3.org/2000/svg" xmlns:xlink="http://www.w3.org/1999/xlink" width="2500" zoomAndPan="magnify" viewBox="0 0 1874.88 1874.999927" height="2500" preserveAspectRatio="xMidYMid meet" version="1.0"><defs><g/><clipPath id="9e5756000d"><path d="M 25.132812 1193.832031 L 338.84375 1193.832031 L 338.84375 1507.539062 L 25.132812 1507.539062 Z M 25.132812 1193.832031 " clip-rule="nonzero"/></clipPath><clipPath id="c5d715e512"><path d="M 181.988281 1193.832031 C 95.359375 1193.832031 25.132812 1264.058594 25.132812 1350.683594 C 25.132812 1437.3125 95.359375 1507.539062 181.988281 1507.539062 C 268.617188 1507.539062 338.84375 1437.3125 338.84375 1350.683594 C 338.84375 1264.058594 268.617188 1193.832031 181.988281 1193.832031 Z M 181.988281 1193.832031 " clip-rule="nonzero"/></clipPath><clipPath id="124825334d"><path d="M 0.132812 0.832031 L 313.84375 0.832031 L 313.84375 314.539062 L 0.132812 314.539062 Z M 0.132812 0.832031 " clip-rule="nonzero"/></clipPath><clipPath id="91bec709b8"><path d="M 156.988281 0.832031 C 70.359375 0.832031 0.132812 71.058594 0.132812 157.683594 C 0.132812 244.3125 70.359375 314.539062 156.988281 314.539062 C 243.617188 314.539062 313.84375 244.3125 313.84375 157.683594 C 313.84375 71.058594 243.617188 0.832031 156.988281 0.832031 Z M 156.988281 0.832031 " clip-rule="nonzero"/></clipPath><clipPath id="57ea635c10"><rect x="0" width="314" y="0" height="315"/></clipPath><clipPath id="30f816cc82"><rect x="0" width="653" y="0" height="1153"/></clipPath><clipPath id="4756a31aec"><rect x="0" width="750" y="0" height="1639"/></clipPath></defs><g clip-path="url(#9e5756000d)"><g clip-path="url(#c5d715e512)"><g transform="matrix(1, 0, 0, 1, 25, 1193)"><g clip-path="url(#57ea635c10)"><g clip-path="url(#124825334d)"><g clip-path="url(#91bec709b8)"><path fill="#00bf63" d="M 0.132812 0.832031 L 313.84375 0.832031 L 313.84375 314.539062 L 0.132812 314.539062 Z M 0.132812 0.832031 " fill-opacity="1" fill-rule="nonzero"/></g></g></g></g></g></g><g transform="matrix(1, 0, 0, 1, 1206, 537)"><g clip-path="url(#30f816cc82)"><g fill="#ffffff" fill-opacity="1"><g transform="translate(0.852237, 930.224167)"><g><path d="M 637.15625 -177.09375 C 585.707031 -48.144531 492.539062 16.328125 357.65625 16.328125 C 268.28125 16.328125 192.753906 -17.226562 131.078125 -84.34375 C 69.410156 -151.457031 38.578125 -238.109375 38.578125 -344.296875 C 38.578125 -453.128906 70.316406 -542.503906 133.796875 -612.421875 C 197.285156 -682.335938 277.015625 -717.296875 372.984375 -717.296875 C 437.296875 -717.296875 495.34375 -701.132812 547.125 -668.8125 L 567.40625 -701.953125 L 606.96875 -701.953125 L 611.921875 -451.640625 L 570.375 -451.640625 C 538.382812 -601.035156 474.566406 -675.734375 378.921875 -675.734375 C 311.648438 -675.734375 257.8125 -647.039062 217.40625 -589.65625 C 177.007812 -532.28125 156.8125 -452.96875 156.8125 -351.71875 C 156.8125 -262.019531 179.070312 -187.570312 223.59375 -128.375 C 268.113281 -69.175781 325.003906 -39.578125 394.265625 -39.578125 C 491.546875 -39.578125 560.304688 -91.519531 600.546875 -195.40625 Z M 637.15625 -177.09375 "/></g></g></g></g></g><g transform="matrix(1, 0, 0, 1, 459, 117)"><g clip-path="url(#4756a31aec)"><g fill="#ffffff" fill-opacity="1"><g transform="translate(0.936197, 1320.839851)"><g><path d="M 708.1875 -948.9375 C 649.050781 -943.78125 611.148438 -935.453125 594.484375 -923.953125 C 577.828125 -912.453125 569.5 -891.453125 569.5 -860.953125 L 569.5 -269.625 C 569.5 -195 541.578125 -127.296875 485.734375 -66.515625 C 429.890625 -5.742188 356.441406 24.640625 265.390625 24.640625 C 187.484375 24.640625 124.945312 3.050781 77.78125 -40.125 C 30.625 -83.300781 7.046875 -141.023438 7.046875 -213.296875 C 7.046875 -249.429688 15.960938 -278.878906 33.796875 -301.640625 C 51.628906 -324.410156 74.859375 -335.796875 103.484375 -335.796875 C 133.046875 -335.796875 156.15625 -327.695312 172.8125 -311.5 C 189.476562 -295.3125 197.8125 -274.546875 197.8125 -249.203125 C 197.8125 -222.921875 179.976562 -182.09375 144.3125 -126.71875 C 135.863281 -114.039062 129.53125 -101.132812 125.3125 -88 L 125.3125 -86.59375 C 154.875 -48.101562 198.046875 -28.859375 254.828125 -28.859375 C 311.617188 -28.859375 353.035156 -50.796875 379.078125 -94.671875 C 405.128906 -138.554688 418.15625 -215.644531 418.15625 -325.9375 L 418.15625 -853.203125 C 418.15625 -909.992188 368.171875 -941.90625 268.203125 -948.9375 L 268.203125 -998.921875 L 708.1875 -998.921875 Z M 708.1875 -948.9375 "/></g></g></g></g></g></svg>